HIERARCHY
ROOT Hips
{
	OFFSET -0.001795 -0.223333 0.028219
	CHANNELS 6 Xposition Yposition Zposition Zrotation Yrotation Xrotation 
	JOINT LeftUpLeg
	{
		OFFSET 0.069520 -0.091406 -0.006815
		CHANNELS 3 Zrotation Yrotation Xrotation
		JOINT LeftLeg
		{
			OFFSET 0.034277 -0.375199 -0.004496
			CHANNELS 3 Zrotation Yrotation Xrotation
			JOINT LeftFoot
			{
				OFFSET -0.013596 -0.397961 -0.043693
				CHANNELS 3 Zrotation Yrotation Xrotation
				JOINT LeftToe
				{
					OFFSET 0.026358 -0.055791 0.119288
					CHANNELS 3 Zrotation Yrotation Xrotation
					End Site
					{
						OFFSET 0.000000 0.000000 0.000000
					}
				}
			}
		}
	}
	JOINT RightUpLeg
	{
		OFFSET -0.067670 -0.090522 -0.004320
		CHANNELS 3 Zrotation Yrotation Xrotation
		JOINT RightLeg
		{
			OFFSET -0.038290 -0.382569 -0.008850
			CHANNELS 3 Zrotation Yrotation Xrotation
			JOINT RightFoot
			{
				OFFSET 0.015774 -0.398415 -0.042312
				CHANNELS 3 Zrotation Yrotation Xrotation
				JOINT RightToe
				{
					OFFSET -0.025372 -0.048144 0.123348
					CHANNELS 3 Zrotation Yrotation Xrotation
					End Site
					{
						OFFSET 0.000000 0.000000 0.000000
					}
				}
			}
		}
	}
	JOINT Spine
	{
		OFFSET -0.002533 0.108963 -0.026696
		CHANNELS 3 Zrotation Yrotation Xrotation
		JOINT Spine1
		{
			OFFSET 0.005487 0.135180 0.001092
			CHANNELS 3 Zrotation Yrotation Xrotation
			JOINT Spine2
			{
				OFFSET 0.001457 0.052922 0.025425
				CHANNELS 3 Zrotation Yrotation Xrotation
				JOINT Neck
				{
					OFFSET -0.002778 0.213870 -0.042857
					CHANNELS 3 Zrotation Yrotation Xrotation
					JOINT Head
					{
						OFFSET 0.005152 0.064970 0.051349
						CHANNELS 3 Zrotation Yrotation Xrotation
						End Site
						{
							OFFSET 0.000000 0.000000 0.000000
						}
					}
				}
				JOINT LeftShoulder
				{
					OFFSET 0.078845 0.121749 -0.034090
					CHANNELS 3 Zrotation Yrotation Xrotation
					JOINT LeftArm
					{
						OFFSET 0.090977 0.030469 -0.008868
						CHANNELS 3 Zrotation Yrotation Xrotation
						JOINT LeftForeArm
						{
							OFFSET 0.259612 -0.012772 -0.027456
							CHANNELS 3 Zrotation Yrotation Xrotation
							JOINT LeftHand
							{
								OFFSET 0.249234 0.008986 -0.001171
								CHANNELS 3 Zrotation Yrotation Xrotation
								End Site
								{
									OFFSET 0.000000 0.000000 0.000000
								}
							}
						}
					}
				}
				JOINT RightShoulder
				{
					OFFSET -0.081759 0.118833 -0.038615
					CHANNELS 3 Zrotation Yrotation Xrotation
					JOINT RightArm
					{
						OFFSET -0.096012 0.032551 -0.009143
						CHANNELS 3 Zrotation Yrotation Xrotation
						JOINT RightForeArm
						{
							OFFSET -0.253742 -0.013329 -0.021401
							CHANNELS 3 Zrotation Yrotation Xrotation
							JOINT RightHand
							{
								OFFSET -0.255298 0.007772 -0.005559
								CHANNELS 3 Zrotation Yrotation Xrotation
								End Site
								{
									OFFSET 0.000000 0.000000 0.000000
								}
							}
						}
					}
				}
			}
		}
	}
}
MOTION
Frames: 18
Frame Time: 0.050000
0.000000 0.927013 0.000000 -0.818344 -0.183746 2.850315 2.544671 -0.484096 -6.324587 -0.549932 -0.606286 22.675893 0.042447 -1.119921 -2.473202 0.000000 0.000000 0.000000 3.077185 0.891990 -7.755481 -1.992348 0.585118 6.525220 3.505697 9.922002 -1.002077 0.000000 0.000000 0.000000 3.769650 -0.300250 3.111024 -1.208007 0.592964 -1.335546 -1.821226 0.140010 9.034382 3.710841 -1.267634 -14.933530 0.000000 0.000000 0.000000 -22.210816 -4.641054 0.564796 -47.272032 -4.777044 -4.141235 -2.239861 -34.342899 2.129082 0.000000 0.000000 0.000000 21.665059 -0.188202 -1.921345 50.562101 1.142957 -4.832587 8.298576 34.403722 3.757783 0.000000 0.000000 0.000000 
-0.003960 0.930937 0.006952 -0.826527 0.728549 2.883042 3.537301 -0.794711 -11.912524 -3.052835 0.013641 32.250687 0.588543 2.507767 2.929284 0.000000 0.000000 0.000000 3.137368 0.696362 -6.171919 -1.536237 0.398962 4.465783 3.696153 9.268522 0.476661 0.000000 0.000000 0.000000 4.434448 -0.436596 4.407877 -1.516784 0.755001 -2.600209 -1.908583 0.034302 9.396597 2.971026 -0.758472 -15.007109 0.000000 0.000000 0.000000 -24.443968 -6.455870 1.417418 -46.488102 -4.158016 -4.289879 0.796613 -35.312717 1.209516 0.000000 0.000000 0.000000 21.702357 -0.017604 -1.698442 48.952338 0.024920 -5.173654 11.924972 35.734528 5.083440 0.000000 0.000000 0.000000 
-0.005909 0.931834 0.014552 -0.551808 2.056782 3.043663 3.682635 -1.153623 -17.400935 -4.352148 0.318248 38.637322 1.483364 6.512541 9.441995 0.000000 0.000000 0.000000 2.737478 0.582554 -5.282529 -0.945121 0.270410 3.600358 3.307434 8.232625 0.531824 0.000000 0.000000 0.000000 5.025048 -0.496455 4.631553 -0.983733 0.514382 -2.125137 -2.695333 1.374014 8.817085 3.519076 -1.025993 -13.618657 0.000000 0.000000 0.000000 -24.666398 -7.623259 1.291903 -47.278051 -4.361809 -3.986274 0.314201 -35.828414 1.160253 0.000000 0.000000 0.000000 21.016240 -0.187262 -1.117225 50.210459 0.639938 -5.151289 12.101217 35.311772 5.299357 0.000000 0.000000 0.000000 
-0.006368 0.933361 0.023548 -0.233733 2.838378 1.851464 3.648548 -1.299521 -19.259239 -4.131046 0.045708 39.916041 1.862983 8.189555 12.942604 0.000000 0.000000 0.000000 2.331320 0.349781 -3.318594 -0.622688 0.224911 3.616285 3.092245 7.718416 0.477153 0.000000 0.000000 0.000000 5.048002 -0.631959 6.382614 -1.117809 0.552787 -0.882051 -2.933093 2.034674 8.432895 2.868556 -0.681618 -12.000780 0.000000 0.000000 0.000000 -25.185425 -8.639401 1.444676 -46.719754 -4.773269 -3.627662 -0.145422 -37.058597 1.229192 0.000000 0.000000 0.000000 20.752893 0.474049 -0.419631 49.326837 1.851170 -4.663096 13.733013 35.546771 5.950813 0.000000 0.000000 0.000000 
-0.005760 0.934121 0.033369 0.335901 3.537846 1.616900 3.388396 -1.469255 -20.732034 -3.758679 -0.171058 36.928941 3.413120 9.683591 8.491549 0.000000 0.000000 0.000000 1.913394 0.253359 -2.480120 -0.893333 0.275994 3.915371 2.756044 7.141222 0.041026 0.000000 0.000000 0.000000 4.377904 -0.690258 7.692329 -1.001300 0.505956 -1.077983 -2.735288 1.934956 8.204429 1.922921 -0.065269 -11.677279 0.000000 0.000000 0.000000 -25.329893 -9.303493 1.749832 -46.330527 -4.024673 -3.822961 -2.429608 -39.492152 2.091623 0.000000 0.000000 0.000000 20.763396 1.540052 0.243390 48.636643 1.854246 -4.606785 15.192580 37.767385 6.890434 0.000000 0.000000 0.000000 
-0.004062 0.934964 0.043731 0.495758 3.414949 2.168005 3.452015 -1.662058 -23.420689 -3.455841 -0.145729 32.123127 5.044612 11.014118 1.671830 0.000000 0.000000 0.000000 1.892106 0.267151 -2.624355 -1.327868 0.358924 4.327731 2.751340 7.201736 -0.068412 0.000000 0.000000 0.000000 4.156370 -0.701354 7.959876 -1.365283 0.665172 -0.747903 -3.294989 2.910755 7.759123 1.756568 0.190357 -12.092660 0.000000 0.000000 0.000000 -25.808007 -9.796572 1.614015 -44.805982 -3.943183 -3.530523 -2.669953 -41.173728 2.141068 0.000000 0.000000 0.000000 21.021397 1.555192 0.533867 49.062748 2.253748 -4.520467 16.845789 40.240376 8.178854 0.000000 0.000000 0.000000 
-0.000750 0.933826 0.055267 0.227479 3.469567 1.906117 4.400578 -1.564980 -24.498712 -3.561000 0.010650 27.013778 4.571423 9.411676 -0.723585 0.000000 0.000000 0.000000 1.977203 0.188869 -1.949367 -1.249703 0.379934 5.029608 2.594477 7.238428 -0.744342 0.000000 0.000000 0.000000 3.583221 -0.751412 9.274153 -1.498988 0.725488 -0.612794 -2.970231 3.175157 7.972684 1.631951 0.312553 -12.244816 0.000000 0.000000 0.000000 -25.082683 -9.462550 1.379803 -44.891940 -5.532731 -2.986718 -3.923822 -42.450119 2.650668 0.000000 0.000000 0.000000 20.246804 2.035237 0.884463 49.868987 2.852322 -4.353684 18.560023 43.007694 9.604392 0.000000 0.000000 0.000000 
0.004353 0.931889 0.068594 -0.005692 3.137450 1.394081 5.872953 -1.291703 -25.083487 -2.410457 -0.161580 20.052288 2.909319 7.602063 4.234280 0.000000 0.000000 0.000000 1.378351 0.050300 -0.694137 -0.335720 0.251369 5.366432 2.617403 7.810441 -1.478672 0.000000 0.000000 0.000000 3.239259 -0.765533 10.019831 -1.791308 0.848699 0.223695 -2.841688 3.333316 8.533148 -0.321822 1.581025 -12.008279 0.000000 0.000000 0.000000 -23.809904 -10.490613 2.125671 -45.126596 -8.037240 -2.203348 -4.517158 -43.632589 2.976303 0.000000 0.000000 0.000000 18.764682 3.212822 1.531402 51.707595 4.277129 -3.883334 18.548175 45.302741 10.257146 0.000000 0.000000 0.000000 
0.011352 0.928745 0.083925 -0.175772 2.512192 0.851934 6.531361 -1.094004 -24.606848 -0.409697 -0.449916 13.908378 0.791280 4.101127 5.735497 0.000000 0.000000 0.000000 0.558066 -0.099411 0.820823 0.510241 0.125545 5.537200 2.658242 8.713938 -2.539862 0.000000 0.000000 0.000000 2.304569 -0.706303 10.721061 -1.985112 0.928936 1.269104 -2.749304 3.487377 8.261889 -0.632838 1.810545 -12.517391 0.000000 0.000000 0.000000 -23.268614 -11.546247 2.825578 -44.417340 -10.444982 -1.324634 -5.080918 -46.195246 3.406618 0.000000 0.000000 0.000000 18.416135 4.659011 2.264019 52.815123 5.866824 -3.222202 17.474401 46.244513 10.016805 0.000000 0.000000 0.000000 
0.020659 0.924967 0.101798 -0.843175 2.098966 0.605559 7.626751 -0.834321 -24.147422 -0.192708 -0.421750 12.172741 0.190629 2.523385 4.685627 0.000000 0.000000 0.000000 0.242753 -0.200734 1.873661 1.177793 0.040053 6.250121 2.612894 9.391551 -3.556580 0.000000 0.000000 0.000000 1.910856 -0.695590 11.276370 -2.639078 1.250291 1.684405 -2.411985 2.922525 8.867614 -2.269412 2.798573 -12.270545 0.000000 0.000000 0.000000 -23.010732 -12.771617 3.863585 -44.256756 -13.882374 -0.246380 -4.141031 -46.387100 3.167939 0.000000 0.000000 0.000000 18.891654 6.321950 3.006235 52.504407 7.422003 -2.599259 15.394803 46.677266 9.105136 0.000000 0.000000 0.000000 
0.032947 0.919857 0.122123 -1.250281 0.935505 0.954660 8.540082 -0.597879 -24.652410 -1.462386 -0.208327 15.563655 1.053300 3.740089 3.697958 0.000000 0.000000 0.000000 -0.221209 -0.211602 2.181743 0.972705 0.116815 7.357618 2.536947 10.559867 -5.135963 0.000000 0.000000 0.000000 1.089435 -0.617131 11.684459 -3.027638 1.449457 1.876175 -2.091536 2.299837 8.871152 -3.401600 3.426563 -12.293607 0.000000 0.000000 0.000000 -22.213534 -13.798543 4.906648 -44.646945 -16.578637 0.585790 -2.580722 -45.238453 2.627128 0.000000 0.000000 0.000000 18.669432 7.972523 3.569460 52.890848 8.665281 -1.989592 12.784180 45.513505 7.527713 0.000000 0.000000 0.000000 
0.049090 0.915139 0.144688 -1.799106 -1.102656 1.770164 9.306609 -0.315227 -25.392829 -3.823146 0.480993 21.480973 2.106410 5.181774 2.084307 0.000000 0.000000 0.000000 -0.416354 -0.197514 2.186721 -0.340606 0.392952 8.104756 2.702729 12.312102 -6.277240 0.000000 0.000000 0.000000 0.603440 -0.569790 12.325914 -4.076680 1.993676 2.353301 -1.550188 1.308511 8.461752 -5.506567 4.610488 -11.587508 0.000000 0.000000 0.000000 -23.403945 -15.147962 6.476950 -43.855469 -19.971180 1.608739 1.923151 -41.577469 0.958318 0.000000 0.000000 0.000000 18.781316 10.331513 4.281869 52.146232 10.101638 -1.192516 12.531266 44.294508 6.832830 0.000000 0.000000 0.000000 
0.068213 0.911793 0.168288 -2.374000 -2.382391 2.422360 8.856631 -0.327422 -26.434633 -4.058827 0.688693 25.303845 2.473874 7.340572 7.381575 0.000000 0.000000 0.000000 -1.021062 -0.197348 2.590567 -1.108763 0.560202 8.545589 3.017887 13.397056 -6.258093 0.000000 0.000000 0.000000 0.332612 -0.569680 13.565073 -4.496498 2.214077 2.356432 -1.200993 0.474687 8.467429 -6.719155 5.254257 -13.124392 0.000000 0.000000 0.000000 -24.307597 -16.919085 8.216501 -41.882655 -22.250373 2.088076 5.370677 -37.737431 -0.166847 0.000000 0.000000 0.000000 17.237646 11.866472 4.642043 53.128056 10.761138 -0.787402 12.443097 42.745518 6.291732 0.000000 0.000000 0.000000 
0.088706 0.910857 0.191815 -2.728460 -4.288877 4.422230 9.206638 -0.106102 -27.987731 -6.153392 1.698460 27.457961 3.696000 9.108664 5.988151 0.000000 0.000000 0.000000 -2.254968 0.007403 1.141503 -1.444298 0.690103 9.497385 3.571190 14.171776 -5.210848 0.000000 0.000000 0.000000 -0.401071 -0.443533 13.818258 -5.226070 2.607040 2.792071 -1.383746 -0.661326 7.873757 -7.706345 5.635400 -14.428133 0.000000 0.000000 0.000000 -25.216122 -19.075294 10.503958 -38.559875 -24.737347 2.374693 8.728983 -31.366420 -0.977580 0.000000 0.000000 0.000000 16.261851 14.418956 5.420559 53.968909 11.508199 -0.254226 11.929681 41.705522 5.622907 0.000000 0.000000 0.000000 
0.108442 0.913583 0.213466 -3.514991 -4.794441 6.308650 8.920266 -0.145825 -28.814067 -6.583889 1.947889 27.924266 4.173187 9.813692 5.166129 0.000000 0.000000 0.000000 -2.622466 0.210226 -1.126835 -1.573065 0.871236 11.850007 4.298234 13.036780 -1.985288 0.000000 0.000000 0.000000 -1.379338 -0.297131 14.502174 -5.746859 2.827775 2.170565 -1.295394 -1.699996 8.026146 -8.980257 6.222747 -15.931380 0.000000 0.000000 0.000000 -26.582132 -20.828996 12.468642 -33.694283 -25.478551 1.850423 8.969109 -25.194146 -0.846569 0.000000 0.000000 0.000000 16.347259 15.845668 5.861290 54.267403 11.687242 -0.103331 12.879712 41.268704 5.748599 0.000000 0.000000 0.000000 
0.126202 0.916427 0.233219 -4.445693 -5.953585 8.623923 9.212406 0.010443 -29.100899 -7.515910 2.356113 26.687596 4.862658 10.923043 4.342923 0.000000 0.000000 0.000000 -2.542125 0.436395 -3.873076 -1.565319 1.007225 13.564072 4.456907 10.077015 1.733341 0.000000 0.000000 0.000000 -1.975879 -0.165200 14.533807 -5.986613 2.924695 1.920247 -1.780436 -1.777075 7.541100 -8.997142 6.054659 -17.504479 0.000000 0.000000 0.000000 -27.104539 -22.578925 14.033185 -29.935628 -26.638527 1.645238 9.610396 -18.647644 -0.742032 0.000000 0.000000 0.000000 15.540626 16.625132 6.135185 55.607656 11.634096 -0.051417 15.633090 41.351053 6.693669 0.000000 0.000000 0.000000 
0.141924 0.921081 0.251080 -5.694562 -6.710263 10.546461 9.662135 0.160659 -28.629509 -8.004875 2.473085 24.633875 5.274758 11.625013 3.939353 0.000000 0.000000 0.000000 -2.277572 0.620915 -6.045281 -0.531459 0.835141 14.038953 4.460696 5.417450 7.805934 0.000000 0.000000 0.000000 -2.506442 -0.046317 14.832958 -6.332734 3.081187 1.864595 -1.869677 -2.166421 7.089658 -10.037938 6.536646 -18.008266 0.000000 0.000000 0.000000 -27.757711 -23.846992 15.401548 -25.463702 -27.805054 1.256370 9.623119 -13.596172 -0.545325 0.000000 0.000000 0.000000 15.686952 17.882924 6.631782 55.875443 11.266128 -0.128276 19.127568 43.206405 8.270111 0.000000 0.000000 0.000000 
0.155605 0.925635 0.267037 -6.640301 -8.923221 12.594692 10.450813 0.513767 -28.016014 -9.507268 2.997056 22.209449 6.145985 13.222283 4.455098 0.000000 0.000000 0.000000 -2.000503 0.830387 -8.297132 -1.046893 0.963798 13.659788 5.042326 2.496548 13.869577 0.000000 0.000000 0.000000 -3.462401 0.199375 14.704304 -6.804297 3.293342 1.518162 -2.658114 -1.643265 6.656164 -10.153692 6.485881 -18.775933 0.000000 0.000000 0.000000 -26.974634 -24.907579 16.102581 -22.157134 -27.530896 0.788109 10.005327 -11.375907 -0.486057 0.000000 0.000000 0.000000 16.566353 18.863172 7.128581 55.239006 11.253043 -0.029824 22.218104 45.089104 9.883014 0.000000 0.000000 0.000000 
